<?xml version="1.0" encoding="UTF-8"?>
<svg id="Capa_2" xmlns="http://www.w3.org/2000/svg" version="1.1" viewBox="0 0 1920 1080">
  <!-- Generator: Adobe Illustrator 29.8.2, SVG Export Plug-In . SVG Version: 2.1.1 Build 3)  -->
  <defs>
    <style>
      .st0 {
        fill: #fbb03b;
      }

      .st1 {
        fill: #009fe3;
      }

      .st2 {
        fill: #999;
      }
    </style>
  </defs>
  <g>
    <path class="st2" d="M1049.7,528.2l12.97.21,3.02,9.22c6.32-14.06,29.49-13.99,35.73-.03,9.34-16.03,40.45-13.16,40.45,6.59v46.09h-15.05v-42.33c0-6.42-12.25-11.19-18.75-5.57-1.04.9-5.7,8.78-5.7,9.33v38.56l-11.97-.26-2.82-2.82c-1.44-12.07,1.01-25.51-.26-37.39-2.11-19.74-22.57-5.36-22.57-1.85v42.33h-15.05v-62.08Z"/>
    <path class="st2" d="M1491.77,501.86v33.86c4.96.08,4.19-4.03,9.58-6.33,29.96-12.78,42.82,24.73,31.6,48.44-7.48,15.78-29.1,18.17-40.24,4.92l-3.98,7.3-11.18-1.54-.82-81.95,3.08-4.44,11.97-.26ZM1496.02,574.75c13.46,14.45,35.21-8.87,22.09-28.68-15.22-22.98-37.18,12.48-22.09,28.68Z"/>
    <path class="st2" d="M1346.92,501.86v33.86c10.51-7.23,19.98-12.98,31.91-4.63,1.89,1.32,7.6,7.77,7.6,9.33v49.85l-11.97-.26-2.82-2.82c-3.85-11.75,8.85-52.14-13.94-47.38-2.56.54-10.78,6.67-10.78,8.14v42.33h-15.05v-88.42h15.05Z"/>
    <path class="st2" d="M1641.82,526.82c41.64-1.62,42.08,58.4,10.67,63.33-52.12,8.19-53.21-61.68-10.67-63.33ZM1639.87,539.85c-20.07,4.4-14.97,41.16,5.05,39.13,20.71-2.1,19.76-44.57-5.05-39.13Z"/>
    <path class="st2" d="M981.31,536.38c13.41,14.9,8.77,45.95-11.13,52.45-29.45,9.62-52.39-15.3-41.83-43.71,7.48-20.14,39.21-24.02,52.97-8.74ZM953.24,539.85c-17.91,3.91-16.2,43.76,8.53,38.81,17.66-3.54,16.49-44.28-8.53-38.81Z"/>
    <path class="st2" d="M1314.95,590.28l-13.32-.8-1.75-6.73c-12.43,12.27-39.85,10.78-39.56-10.38.33-23.35,37.91-17.43,39.5-24.55-3.75-16.82-22.72-4.61-33.78-4.56l.26-11.04c10-4.92,36.31-7.44,43.89,1.68,9.3,11.18,1.9,41.96,4.76,56.39ZM1295.65,576.61c2.71-2.55,7.06-14.61,1.17-16.27-5.85.9-19.26,2.06-21.14,8.69-3.28,11.1,14.45,12.77,19.96,7.59Z"/>
    <path class="st2" d="M1418.41,528.2v40.45c0,2.41,7.21,9.82,10.61,9.88,4.39.45,15.73-5.27,15.73-9.88v-40.45h15.05v59.26l-3.11,2.53-11.11-1.48-1.76-7.62c-6.17,10.52-26.83,13.74-34.87,4.75-1.22-1.37-5.58-10.32-5.58-11.35v-46.09h15.05Z"/>
    <path class="st2" d="M1173.85,528.2v42.33c0,11.72,24.46,7.38,24.46,0v-42.33h15.05v62.08l-13.18.02-.95-7.56c-8.86,6.77-16.22,9.77-27.81,7.14-3.81-.87-12.62-8.6-12.62-11.82v-49.85h15.05Z"/>
    <path class="st2" d="M891.68,542.3l-9.33-2.9-.09-11.22,9.43.02c-1.16-9.81,1.41-23.42,12.61-25.95,4.12-.93,17.18-2.07,18.9,2.65l-.42,8.25-12.91,1.73-3.14,13.31h13.18s0,11.3,0,11.3h-13.18s0,50.78,0,50.78h-15.05v-47.97Z"/>
    <rect class="st2" x="1232.17" y="501.86" width="15.05" height="88.42"/>
    <path class="st2" d="M1002.67,528.2h15.06s.93,11.31.93,11.31c3.04-7.56,10.22-15.17,18.88-11.38l.88,13.25c-6.17-2.39-20.7,3.75-20.7,10.34v38.56h-15.05v-62.08Z"/>
    <polygon class="st2" points="1599 528.2 1599 587.45 1595.89 589.98 1583.95 590.27 1583.95 528.2 1599 528.2"/>
    <path class="st2" d="M1564.67,575.68c11.2,11.03-15.6,24.29-15.59,6.12,0-9.53,10.35-11.28,15.59-6.12Z"/>
    <path class="st2" d="M1584.41,504.2c8.7-8.7,20.97,5.7,11.94,12.88-9.12,7.25-19.49-5.33-11.94-12.88Z"/>
  </g>
  <path class="st0" d="M420.64,602.26c-19.79,0-35.89-16.1-35.89-35.89s16.1-35.89,35.89-35.89,35.89,16.1,35.89,35.89-16.1,35.89-35.89,35.89ZM420.64,551.77c-8.05,0-14.6,6.55-14.6,14.6s6.55,14.6,14.6,14.6,14.6-6.55,14.6-14.6-6.55-14.6-14.6-14.6Z"/>
  <path class="st0" d="M732.28,602.26c-19.79,0-35.89-16.1-35.89-35.89s16.1-35.89,35.89-35.89,35.89,16.1,35.89,35.89-16.1,35.89-35.89,35.89ZM732.28,551.77c-8.05,0-14.6,6.55-14.6,14.6s6.55,14.6,14.6,14.6,14.6-6.55,14.6-14.6-6.55-14.6-14.6-14.6Z"/>
  <g>
    <path class="st1" d="M707.5,517.41l-3.67-.53c-18.03-2.61-55.56-8.06-109.74-8.06-5.43,0-10.95.05-16.49.16v-21.23c0-5.54-4.33-10.15-9.86-10.49-4.99-.31-12.92-.67-22.37-.67-20.84,0-49.68,1.82-68.68,10.47-14.99,6.82-26.68,16.2-30.85,19.76-4.25.03-14.27.11-21.78.15-.48-8.49-3.51-16.53-9.03-23.97l-1.65-2.22h-76.52l.83,6.23c5.92,44.29,13.41,73.74,32.4,83.66,1.12.58,2.37.89,3.63.89,4.07,0,7.45-3.05,7.87-7.11,1.21-11.67,7.44-38.82,39.12-38.82.29,0,.58,0,.87,0,13.63.21,22.74,6.99,27.98,12.65,8.41,9.07,11.8,20.28,11.4,26.86-.87,14.23-7.78,24.62-10.72,28.43-1.54,2-1.8,4.65-.69,6.91,1.12,2.27,3.38,3.67,5.9,3.67h128.79l4.28-.04,1.06-4.13c.02-.09,2.5-9.37,12.96-18.5,13.16-11.48,33.34-17.91,58.6-18.72v25.27l25.78-4.42,5.37-.93-.87-5.38c-.06-.36-5.51-35.74,18.07-47.16,2.68-1.3,4.17-4.15,3.71-7.1-.46-2.96-2.76-5.23-5.72-5.66Z"/>
    <path class="st1" d="M791.7,567.51c2.78,0,29.32-.33,37.68-.44.93-.01,1.34-1.16.65-1.77-6-5.3-26.6-21.45-63.64-30.25-.9-.21-1.59.79-1.07,1.55,3.1,4.5,9.7,15.44,10.01,27.39.18,6.89.16,9.92.1,11.25-.02.57.44,1.05,1.01,1.05h3.9c.39,0,.75-.22.91-.58.91-1.95,4.3-8.2,10.44-8.2Z"/>
    <path class="st1" d="M790.83,573.78l-8.83,24.22h63.39s5.98-3.7,5.98-9.97v-14.24h-60.54Z"/>
    <path class="st1" d="M654.96,567.48c-33.93.69-51.53,19.49-57.54,27.56-1.12,1.5-.03,3.63,1.84,3.63h55.77c1.26,0,2.28-1.02,2.28-2.28v-26.63c0-1.29-1.06-2.31-2.35-2.28Z"/>
    <path class="st1" d="M323.42,585.74c-3.04,0-5.5,2.46-5.5,5.5s2.46,5.5,5.5,5.5h61.08c-2.79-3.31-5.12-7.01-6.92-11h-54.16Z"/>
    <path class="st1" d="M279.98,526.58c-3.04,0-5.5,2.46-5.5,5.5s2.46,5.5,5.5,5.5h61.89c-1.02-3.38-1.98-7.03-2.91-11h-58.98Z"/>
    <path class="st1" d="M333.54,497.01h-83.14c-3.04,0-5.5,2.46-5.5,5.5s2.46,5.5,5.5,5.5h84.88c-.59-3.47-1.17-7.12-1.74-11Z"/>
    <path class="st1" d="M349.29,556.16h-71.79c-3.04,0-5.5,2.46-5.5,5.5s2.46,5.5,5.5,5.5h79.37c-2.78-3.08-5.3-6.74-7.58-11Z"/>
  </g>
</svg>