<?xml version="1.0" encoding="UTF-8"?>
<svg id="Capa_2" xmlns="http://www.w3.org/2000/svg" version="1.1" viewBox="0 0 1920 1080">
  <!-- Generator: Adobe Illustrator 29.8.2, SVG Export Plug-In . SVG Version: 2.1.1 Build 3)  -->
  <defs>
    <style>
      .st0 {
        fill: #fbb03b;
      }

      .st1 {
        fill: #009fe3;
      }
    </style>
  </defs>
  <path class="st0" d="M420.64,602.26c-19.79,0-35.89-16.1-35.89-35.89s16.1-35.89,35.89-35.89,35.89,16.1,35.89,35.89-16.1,35.89-35.89,35.89ZM420.64,551.77c-8.05,0-14.6,6.55-14.6,14.6s6.55,14.6,14.6,14.6,14.6-6.55,14.6-14.6-6.55-14.6-14.6-14.6Z"/>
  <path class="st0" d="M732.28,602.26c-19.79,0-35.89-16.1-35.89-35.89s16.1-35.89,35.89-35.89,35.89,16.1,35.89,35.89-16.1,35.89-35.89,35.89ZM732.28,551.77c-8.05,0-14.6,6.55-14.6,14.6s6.55,14.6,14.6,14.6,14.6-6.55,14.6-14.6-6.55-14.6-14.6-14.6Z"/>
  <g>
    <path class="st1" d="M707.5,517.41l-3.67-.53c-18.03-2.61-55.56-8.06-109.74-8.06-5.43,0-10.95.05-16.49.16v-21.23c0-5.54-4.33-10.15-9.86-10.49-4.99-.31-12.92-.67-22.37-.67-20.84,0-49.68,1.82-68.68,10.47-14.99,6.82-26.68,16.2-30.85,19.76-4.25.03-14.27.11-21.78.15-.48-8.49-3.51-16.53-9.03-23.97l-1.65-2.22h-76.52l.83,6.23c5.92,44.29,13.41,73.74,32.4,83.66,1.12.58,2.37.89,3.63.89,4.07,0,7.45-3.05,7.87-7.11,1.21-11.67,7.44-38.82,39.12-38.82.29,0,.58,0,.87,0,13.63.21,22.74,6.99,27.98,12.65,8.41,9.07,11.8,20.28,11.4,26.86-.87,14.23-7.78,24.62-10.72,28.43-1.54,2-1.8,4.65-.69,6.91,1.12,2.27,3.38,3.67,5.9,3.67h128.79l4.28-.04,1.06-4.13c.02-.09,2.5-9.37,12.96-18.5,13.16-11.48,33.34-17.91,58.6-18.72v25.27l25.78-4.42,5.37-.93-.87-5.38c-.06-.36-5.51-35.74,18.07-47.16,2.68-1.3,4.17-4.15,3.71-7.1-.46-2.96-2.76-5.23-5.72-5.66Z"/>
    <path class="st1" d="M791.7,567.51c2.78,0,29.32-.33,37.68-.44.93-.01,1.34-1.16.65-1.77-6-5.3-26.6-21.45-63.64-30.25-.9-.21-1.59.79-1.07,1.55,3.1,4.5,9.7,15.44,10.01,27.39.18,6.89.16,9.92.1,11.25-.02.57.44,1.05,1.01,1.05h3.9c.39,0,.75-.22.91-.58.91-1.95,4.3-8.2,10.44-8.2Z"/>
    <path class="st1" d="M790.83,573.78l-8.83,24.22h63.39s5.98-3.7,5.98-9.97v-14.24h-60.54Z"/>
    <path class="st1" d="M654.96,567.48c-33.93.69-51.53,19.49-57.54,27.56-1.12,1.5-.03,3.63,1.84,3.63h55.77c1.26,0,2.28-1.02,2.28-2.28v-26.63c0-1.29-1.06-2.31-2.35-2.28Z"/>
    <path class="st1" d="M323.42,585.74c-3.04,0-5.5,2.46-5.5,5.5s2.46,5.5,5.5,5.5h61.08c-2.79-3.31-5.12-7.01-6.92-11h-54.16Z"/>
    <path class="st1" d="M279.98,526.58c-3.04,0-5.5,2.46-5.5,5.5s2.46,5.5,5.5,5.5h61.89c-1.02-3.38-1.98-7.03-2.91-11h-58.98Z"/>
    <path class="st1" d="M333.54,497.01h-83.14c-3.04,0-5.5,2.46-5.5,5.5s2.46,5.5,5.5,5.5h84.88c-.59-3.47-1.17-7.12-1.74-11Z"/>
    <path class="st1" d="M349.29,556.16h-71.79c-3.04,0-5.5,2.46-5.5,5.5s2.46,5.5,5.5,5.5h79.37c-2.78-3.08-5.3-6.74-7.58-11Z"/>
  </g>
</svg>